<svg width="169" height="183" viewBox="0 0 169 183" fill="none" xmlns="http://www.w3.org/2000/svg">
<path fill-rule="evenodd" clip-rule="evenodd" d="M0.542979 130.95C1.5286 141.82 3.99217 152.519 7.85302 162.758C20.4218 136.586 43.3824 107.201 84.6056 81.1391C128.626 53.3075 148.313 22.1833 157.116 -2.18528C149.626 -3.6734 142.069 -4.51093 134.533 -4.72175C122.164 21.9068 99.103 52.062 56.9111 78.7378C30.1185 95.677 12.3398 113.837 0.542979 130.95ZM103.898 -2.10855C68.8184 4.92676 36.895 25.6856 17.564 57.7469C11.8871 67.1623 7.63441 76.9918 4.74265 87.0051C15.2155 77.068 27.6877 67.2561 42.5256 57.8753C73.4165 38.3448 92.3247 17.1926 103.898 -2.10855ZM182.024 5.33432C171.515 34.8439 148.338 70.8029 98.991 102.002C52.8572 131.169 33.4494 163.954 25.2865 188.789C24.8649 190.07 24.473 191.333 24.1085 192.575C28.9161 199.075 34.4117 205.18 40.5637 210.782C41.1348 208.747 41.7656 206.667 42.4624 204.547C52.3657 174.418 75.383 136.838 126.685 104.403C172.82 75.235 192.227 42.4503 200.39 17.6151C200.67 16.7645 200.938 15.9214 201.192 15.0875C199.458 14.0221 197.688 12.9905 195.885 11.9936C191.349 9.4858 186.721 7.26784 182.024 5.33432ZM222.918 31.8117C211.891 60.692 188.64 95.1898 141.071 125.265C94.9371 154.433 75.5293 187.218 67.3664 212.052C65.5539 217.565 64.2848 222.723 63.405 227.406C64.0469 227.775 64.6938 228.14 65.345 228.5C127.781 263.018 207.619 242.533 243.666 182.747C273.877 132.641 263.744 70.833 222.918 31.8117Z" fill="white" fill-opacity="0.05"/>
</svg>
