<svg width="20" height="21" viewBox="0 0 20 21" fill="none" xmlns="http://www.w3.org/2000/svg">
<path fill-rule="evenodd" clip-rule="evenodd" d="M9.99999 2.79175C5.74279 2.79175 2.29166 6.24289 2.29166 10.5001C2.29166 14.7573 5.74279 18.2084 9.99999 18.2084C14.2572 18.2084 17.7083 14.7573 17.7083 10.5001C17.7083 6.24289 14.2572 2.79175 9.99999 2.79175ZM1.04166 10.5001C1.04166 5.55253 5.05244 1.54175 9.99999 1.54175C14.9475 1.54175 18.9583 5.55253 18.9583 10.5001C18.9583 15.4476 14.9475 19.4584 9.99999 19.4584C5.05244 19.4584 1.04166 15.4476 1.04166 10.5001ZM9.99999 6.54175C10.3452 6.54175 10.625 6.82157 10.625 7.16675V10.2412L12.5253 12.1415C12.7693 12.3856 12.7693 12.7813 12.5253 13.0254C12.2812 13.2694 11.8855 13.2694 11.6414 13.0254L9.55805 10.942C9.44084 10.8248 9.37499 10.6658 9.37499 10.5001V7.16675C9.37499 6.82157 9.65481 6.54175 9.99999 6.54175Z" fill="#6D7379"/>
</svg>
