<svg width="25" height="24" viewBox="0 0 25 24" fill="none" xmlns="http://www.w3.org/2000/svg">
<path d="M2.6847 13.2135C2.33168 10.9162 2.15517 9.76763 2.58948 8.74938C3.02378 7.73112 3.98734 7.03443 5.91445 5.64106L7.3543 4.6C9.7516 2.86667 10.9503 2 12.3333 2C13.7164 2 14.915 2.86667 17.3123 4.6L18.7522 5.64106C20.6793 7.03443 21.6428 7.73112 22.0771 8.74938C22.5115 9.76763 22.3349 10.9162 21.9819 13.2135L21.6809 15.1724C21.1804 18.4289 20.9302 20.0572 19.7623 21.0286C18.5944 22 16.887 22 13.4721 22H11.1945C7.77965 22 6.07222 22 4.90431 21.0286C3.7364 20.0572 3.48618 18.4289 2.98574 15.1724L2.6847 13.2135Z" fill="white" stroke="#99A2AB" stroke-width="1.5" stroke-linejoin="round"/>
<path d="M10.3333 18L14.3333 18" stroke="#99A2AB" stroke-width="1.5" stroke-linecap="round" stroke-linejoin="round"/>
</svg>
