<svg width="20" height="21" viewBox="0 0 20 21" fill="none" xmlns="http://www.w3.org/2000/svg">
<path d="M7.62766 5.00706C8.6832 3.11352 9.21097 2.16675 10 2.16675C10.7891 2.16675 11.3168 3.11352 12.3724 5.00706L12.6455 5.49694C12.9454 6.03503 13.0954 6.30407 13.3292 6.48159C13.5631 6.6591 13.8543 6.725 14.4368 6.85679L14.9671 6.97677C17.0168 7.44054 18.0417 7.67243 18.2855 8.45652C18.5293 9.24062 17.8306 10.0576 16.4333 11.6917L16.0718 12.1144C15.6747 12.5788 15.4761 12.8109 15.3868 13.0982C15.2975 13.3854 15.3275 13.6952 15.3875 14.3147L15.4422 14.8787C15.6535 17.0589 15.7591 18.149 15.1207 18.6336C14.4824 19.1182 13.5228 18.6764 11.6036 17.7927L11.1071 17.5641C10.5617 17.313 10.2891 17.1875 10 17.1875C9.71097 17.1875 9.43829 17.313 8.89292 17.5641L8.39641 17.7927C6.47725 18.6764 5.51767 19.1182 4.87931 18.6336C4.24095 18.149 4.34659 17.0589 4.55785 14.8787L4.61251 14.3147C4.67254 13.6952 4.70256 13.3854 4.61324 13.0982C4.52392 12.8109 4.32537 12.5788 3.92829 12.1144L3.56677 11.6917C2.16939 10.0576 1.47071 9.24062 1.71454 8.45652C1.95837 7.67243 2.98323 7.44054 5.03297 6.97677L5.56326 6.85679C6.14573 6.725 6.43696 6.6591 6.67081 6.48159C6.90465 6.30407 7.05462 6.03503 7.35458 5.49694L7.62766 5.00706Z" fill="#F9E000"/>
</svg>
