<svg width="396" height="234" viewBox="0 0 396 234" fill="none" xmlns="http://www.w3.org/2000/svg">
<g clip-path="url(#clip0_833_3312)">
<rect width="396" height="234" rx="30" fill="url(#paint0_linear_833_3312)"/>
<rect x="-266" y="-259.876" width="719.431" height="466.929" rx="137.095" transform="rotate(-25.4472 -266 -259.876)" fill="#19D9C2"/>
<rect x="127.754" y="232.718" width="300" height="194.707" rx="50" transform="rotate(-31.4954 127.754 232.718)" fill="#3B58E7"/>
<path d="M307.24 198.008L311.392 195.68H313.792V212H310.96V198.848L308.512 200.192L307.24 198.008ZM326.895 212H317.007V209.72C317.007 208.568 317.159 207.608 317.463 206.84C317.767 206.056 318.175 205.416 318.687 204.92C319.199 204.408 319.759 204 320.367 203.696L321.999 202.88C322.623 202.56 323.127 202.224 323.511 201.872C323.911 201.504 324.111 201.032 324.111 200.456V200.024C324.111 199.432 323.903 198.968 323.487 198.632C323.087 198.28 322.439 198.104 321.543 198.104C320.999 198.104 320.447 198.184 319.887 198.344C319.343 198.504 318.679 198.728 317.895 199.016L317.007 196.544C317.903 196.144 318.719 195.864 319.455 195.704C320.207 195.528 320.935 195.44 321.639 195.44C322.935 195.44 323.967 195.648 324.735 196.064C325.519 196.48 326.079 197.04 326.415 197.744C326.767 198.432 326.943 199.192 326.943 200.024V200.456C326.943 201.32 326.767 202.056 326.415 202.664C326.079 203.272 325.631 203.784 325.071 204.2C324.511 204.616 323.903 204.984 323.247 205.304L321.615 206.12C321.023 206.408 320.583 206.808 320.295 207.32C320.023 207.832 319.871 208.488 319.839 209.288H326.895V212ZM335.004 194.24H337.836L330.06 215.432H327.228L335.004 194.24ZM348.457 212H338.569V209.72C338.569 208.568 338.721 207.608 339.025 206.84C339.329 206.056 339.737 205.416 340.249 204.92C340.761 204.408 341.321 204 341.929 203.696L343.561 202.88C344.185 202.56 344.689 202.224 345.073 201.872C345.473 201.504 345.673 201.032 345.673 200.456V200.024C345.673 199.432 345.465 198.968 345.049 198.632C344.649 198.28 344.001 198.104 343.105 198.104C342.561 198.104 342.009 198.184 341.449 198.344C340.905 198.504 340.241 198.728 339.457 199.016L338.569 196.544C339.465 196.144 340.281 195.864 341.017 195.704C341.769 195.528 342.497 195.44 343.201 195.44C344.497 195.44 345.529 195.648 346.297 196.064C347.081 196.48 347.641 197.04 347.977 197.744C348.329 198.432 348.505 199.192 348.505 200.024V200.456C348.505 201.32 348.329 202.056 347.977 202.664C347.641 203.272 347.193 203.784 346.633 204.2C346.073 204.616 345.465 204.984 344.809 205.304L343.177 206.12C342.585 206.408 342.145 206.808 341.857 207.32C341.585 207.832 341.433 208.488 341.401 209.288H348.457V212ZM360.575 212H350.687V209.72C350.687 208.568 350.839 207.608 351.143 206.84C351.447 206.056 351.855 205.416 352.367 204.92C352.879 204.408 353.439 204 354.047 203.696L355.679 202.88C356.303 202.56 356.807 202.224 357.191 201.872C357.591 201.504 357.791 201.032 357.791 200.456V200.024C357.791 199.432 357.583 198.968 357.167 198.632C356.767 198.28 356.119 198.104 355.223 198.104C354.679 198.104 354.127 198.184 353.567 198.344C353.023 198.504 352.359 198.728 351.575 199.016L350.687 196.544C351.583 196.144 352.399 195.864 353.135 195.704C353.887 195.528 354.615 195.44 355.319 195.44C356.615 195.44 357.647 195.648 358.415 196.064C359.199 196.48 359.759 197.04 360.095 197.744C360.447 198.432 360.623 199.192 360.623 200.024V200.456C360.623 201.32 360.447 202.056 360.095 202.664C359.759 203.272 359.311 203.784 358.751 204.2C358.191 204.616 357.583 204.984 356.927 205.304L355.295 206.12C354.703 206.408 354.263 206.808 353.975 207.32C353.703 207.832 353.551 208.488 353.519 209.288H360.575V212Z" fill="white"/>
<g clip-path="url(#clip1_833_3312)">
<path d="M38.4477 31.056C42.5969 32.0479 46.7462 30.3947 49.194 27.2086L31.373 23.0005L31.8208 26.2167C33.2536 28.5612 35.582 30.3646 38.4477 31.056Z" fill="white"/>
<path d="M62.5672 30.3637L52.1194 27.8989C50.209 30.9047 47.1941 33.0388 43.7911 33.8203L26 29.6122L26.4478 32.8284C27.8806 35.1729 30.1791 37.0064 33.0448 37.6677C35.194 38.1787 37.3433 37.9683 39.2537 37.2168L43.3135 38.1787C40.2985 40.403 36.3582 41.3348 32.4478 40.403C30.4478 39.922 28.6866 39.0203 27.1642 37.818L27.8209 42.3868L54.2388 48.6087C54.2388 48.6087 58.6866 49.6608 58.8359 48.248L57.8806 41.5752L59.612 41.996C59.612 41.996 64.0598 43.048 64.209 41.6353L62.5672 30.3637Z" fill="white"/>
<path d="M79.5228 44.0103C78.2392 44.0103 77.1348 43.7097 76.2392 43.1386C75.3437 42.5675 74.7169 41.756 74.3586 40.7641L76.5676 39.4716C77.0751 40.8242 78.09 41.4854 79.5825 41.4854C80.2989 41.4854 80.8363 41.3652 81.1646 41.0947C81.493 40.8242 81.6721 40.4935 81.6721 40.1028C81.6721 39.6519 81.4631 39.2912 81.0452 39.0207C80.6273 38.7502 79.9109 38.4797 78.8363 38.1791C78.2392 37.9987 77.7616 37.8184 77.3437 37.638C76.9258 37.4577 76.5377 37.2172 76.1198 36.9467C75.7019 36.6461 75.4034 36.2854 75.1945 35.8346C74.9855 35.3837 74.8661 34.8427 74.8661 34.2415C74.8661 33.0392 75.284 32.1074 76.1198 31.386C76.9557 30.6646 77.9706 30.334 79.1646 30.334C80.2094 30.334 81.1646 30.6045 81.9706 31.1155C82.7766 31.6265 83.4034 32.3479 83.8512 33.2797L81.6721 34.5421C81.1348 33.3999 80.2989 32.8588 79.1646 32.8588C78.6273 32.8588 78.2094 32.9791 77.9109 33.2195C77.6124 33.46 77.4631 33.7906 77.4631 34.1814C77.4631 34.6022 77.6422 34.9328 77.9706 35.2034C78.2989 35.4739 78.9855 35.7444 79.9407 36.045C80.3288 36.1652 80.6273 36.2554 80.8363 36.3456C81.0452 36.4057 81.3139 36.5259 81.6721 36.6762C82.0303 36.8265 82.2989 36.9467 82.5079 37.0669C82.687 37.1872 82.9258 37.3675 83.1646 37.5779C83.4034 37.7883 83.6124 37.9987 83.7318 38.2392C83.8512 38.4797 83.9706 38.7502 84.0601 39.0508C84.1497 39.3814 84.2094 39.712 84.2094 40.1028C84.2094 41.3051 83.7616 42.297 82.896 42.9883C82.0601 43.6496 80.9258 44.0103 79.5228 44.0103Z" fill="white"/>
<path d="M90.8064 34.0923C92.0601 34.0923 93.1347 34.5732 94.0302 35.5351C94.9258 36.4969 95.3735 37.6692 95.3735 39.0518C95.3735 40.4345 94.9258 41.6067 94.0302 42.5686C93.1347 43.5304 92.0601 44.0113 90.8064 44.0113C89.4929 44.0113 88.478 43.5605 87.7914 42.6287V47.498H85.3735V34.3327H87.7914V35.4449C88.478 34.5432 89.4929 34.0923 90.8064 34.0923ZM88.5079 40.9755C88.9855 41.4564 89.6123 41.727 90.3586 41.727C91.1049 41.727 91.7317 41.4865 92.2094 40.9755C92.687 40.4946 92.9556 39.8333 92.9556 39.0518C92.9556 38.2703 92.7168 37.6391 92.2094 37.1281C91.7019 36.6472 91.1049 36.3767 90.3586 36.3767C89.6123 36.3767 88.9855 36.6171 88.5079 37.1281C88.0302 37.609 87.7914 38.2703 87.7914 39.0518C87.7616 39.8333 88.0004 40.4645 88.5079 40.9755Z" fill="white"/>
<path d="M98.5972 40.043C98.9255 41.2152 99.7912 41.8164 101.224 41.8164C102.149 41.8164 102.836 41.5158 103.314 40.8846L105.254 42.0268C104.329 43.3794 102.985 44.0406 101.164 44.0406C99.6121 44.0406 98.3882 43.5597 97.433 42.6279C96.5076 41.6961 96.03 40.4938 96.03 39.0811C96.03 37.6684 96.4778 36.4661 97.4032 35.5343C98.3285 34.5724 99.5226 34.1216 100.955 34.1216C102.329 34.1216 103.463 34.6025 104.358 35.5644C105.254 36.5262 105.702 37.6985 105.702 39.1112C105.702 39.4117 105.672 39.7724 105.612 40.1031H98.5972V40.043ZM98.5673 38.1794H103.343C103.194 37.5482 102.926 37.0672 102.508 36.7366C102.09 36.436 101.582 36.2557 101.045 36.2557C100.388 36.2557 99.8509 36.436 99.433 36.7667C98.9853 37.0973 98.7166 37.5782 98.5673 38.1794Z" fill="white"/>
<path d="M112.15 34.0923C113.165 34.0923 114.031 34.4229 114.687 35.1143C115.344 35.8056 115.702 36.7674 115.702 37.9697V43.7408H113.284V38.2703C113.284 37.6391 113.105 37.1582 112.777 36.8275C112.449 36.4969 112.001 36.3166 111.434 36.3166C110.807 36.3166 110.299 36.4969 109.941 36.8877C109.553 37.2784 109.374 37.8495 109.374 38.631V43.7108H106.956V34.3327H109.374V35.3848C109.941 34.5131 110.867 34.0923 112.15 34.0923Z" fill="white"/>
<path d="M122.448 34.0923C123.463 34.0923 124.329 34.4229 124.986 35.1143C125.642 35.8056 126.001 36.7674 126.001 37.9697V43.7408H123.583V38.2703C123.583 37.6391 123.404 37.1582 123.075 36.8275C122.747 36.4969 122.299 36.3166 121.732 36.3166C121.105 36.3166 120.598 36.4969 120.239 36.8877C119.851 37.2784 119.672 37.8495 119.672 38.631V43.7108H117.254V34.3327H119.672V35.3848C120.239 34.5131 121.165 34.0923 122.448 34.0923Z" fill="white"/>
<path d="M133.433 34.332H136.001L132.598 43.7702C132.12 45.1228 131.463 46.0847 130.657 46.6858C129.851 47.287 128.866 47.5575 127.672 47.4974V45.243C128.329 45.243 128.836 45.1228 129.224 44.8222C129.612 44.5216 129.911 44.0708 130.12 43.4396L126.299 34.332H128.926L131.374 40.6442L133.433 34.332Z" fill="white"/>
</g>
<path d="M44.736 112.472C44.736 113.773 44.448 114.947 43.872 115.992C43.296 117.016 42.4747 117.827 41.408 118.424C40.3627 119.021 39.0933 119.32 37.6 119.32C35.232 119.32 33.3867 118.52 32.064 116.92C30.7413 115.32 30.08 113.123 30.08 110.328V105.816C30.08 102.829 30.784 100.6 32.192 99.128C33.6 97.656 35.584 96.92 38.144 96.92C39.04 96.92 39.968 97.0267 40.928 97.24C41.9093 97.4533 42.9867 97.8373 44.16 98.392L42.784 101.688C41.824 101.24 40.9813 100.931 40.256 100.76C39.5307 100.568 38.8587 100.472 38.24 100.472C36.896 100.472 35.808 100.877 34.976 101.688C34.1653 102.477 33.76 103.853 33.76 105.816V106.968C34.5067 106.307 35.2747 105.816 36.064 105.496C36.8747 105.176 37.6747 105.016 38.464 105.016C39.744 105.016 40.8533 105.304 41.792 105.88C42.7307 106.456 43.456 107.256 43.968 108.28C44.48 109.304 44.736 110.488 44.736 111.832V112.472ZM33.76 110.328C33.76 112.163 34.1013 113.528 34.784 114.424C35.4667 115.32 36.4267 115.768 37.664 115.768C38.7307 115.768 39.552 115.469 40.128 114.872C40.704 114.253 40.992 113.453 40.992 112.472V111.832C40.992 110.829 40.7253 110.019 40.192 109.4C39.6587 108.781 38.8907 108.472 37.888 108.472C36.3733 108.472 34.9973 109.048 33.76 110.2V110.328ZM60.3308 100.536C58.8801 103.608 57.6428 106.691 56.6188 109.784C55.6161 112.856 54.8161 115.928 54.2188 119H50.1868C50.7841 115.971 51.5734 112.941 52.5548 109.912C53.5361 106.883 54.7414 103.864 56.1708 100.856H46.8268V97.24H60.3308V100.536ZM77.3505 113.08C77.3505 114.253 77.0732 115.309 76.5185 116.248C75.9852 117.187 75.1638 117.933 74.0545 118.488C72.9452 119.043 71.5372 119.32 69.8305 119.32C68.1452 119.32 66.7798 119.064 65.7345 118.552C64.6892 118.019 63.9212 117.325 63.4305 116.472C62.9398 115.619 62.6945 114.669 62.6945 113.624C62.6945 112.579 62.9398 111.619 63.4305 110.744C63.9212 109.848 64.7318 109.027 65.8625 108.28C64.9665 107.683 64.2732 106.947 63.7825 106.072C63.3132 105.197 63.0785 104.173 63.0785 103C63.0785 101.869 63.3452 100.845 63.8785 99.928C64.4118 99.0107 65.1905 98.2853 66.2145 97.752C67.2385 97.1973 68.4652 96.92 69.8945 96.92C71.4305 96.92 72.7212 97.176 73.7665 97.688C74.8118 98.2 75.5905 98.8933 76.1025 99.768C76.6358 100.621 76.9025 101.581 76.9025 102.648C76.9025 103.587 76.6785 104.472 76.2305 105.304C75.8038 106.115 75.0785 106.872 74.0545 107.576C76.2518 108.813 77.3505 110.648 77.3505 113.08ZM69.6065 105.944L71.1745 106.424C71.8998 105.805 72.4012 105.24 72.6785 104.728C72.9772 104.195 73.1265 103.651 73.1265 103.096C73.1265 102.243 72.8492 101.571 72.2945 101.08C71.7612 100.568 70.9932 100.312 69.9905 100.312C68.9878 100.312 68.2092 100.557 67.6545 101.048C67.1212 101.539 66.8545 102.211 66.8545 103.064C66.8545 104.408 67.7718 105.368 69.6065 105.944ZM66.4705 113.08C66.4705 113.933 66.7798 114.627 67.3985 115.16C68.0172 115.672 68.8918 115.928 70.0225 115.928C71.1318 115.928 71.9958 115.672 72.6145 115.16C73.2545 114.648 73.5745 113.965 73.5745 113.112C73.5745 112.472 73.3398 111.896 72.8705 111.384C72.4225 110.851 71.6438 110.413 70.5345 110.072L68.8065 109.528C68.0172 110.168 67.4305 110.765 67.0465 111.32C66.6625 111.875 66.4705 112.461 66.4705 113.08ZM95.0968 110.424C95.0968 113.411 94.3928 115.64 92.9848 117.112C91.5768 118.584 89.5928 119.32 87.0328 119.32C86.1368 119.32 85.2088 119.213 84.2488 119C83.2888 118.787 82.2114 118.403 81.0168 117.848L82.3928 114.552C83.3528 115 84.1954 115.32 84.9208 115.512C85.6674 115.683 86.3394 115.768 86.9368 115.768C88.2808 115.768 89.3581 115.363 90.1688 114.552C91.0008 113.741 91.4168 112.365 91.4168 110.424V109.272C90.6914 109.933 89.9234 110.424 89.1128 110.744C88.3234 111.064 87.5234 111.224 86.7128 111.224C85.4541 111.224 84.3448 110.936 83.3848 110.36C82.4461 109.784 81.7208 108.984 81.2088 107.96C80.6968 106.936 80.4408 105.752 80.4408 104.408V103.768C80.4408 102.573 80.7288 101.453 81.3048 100.408C81.8808 99.3627 82.7021 98.52 83.7688 97.88C84.8354 97.24 86.1048 96.92 87.5768 96.92C89.9448 96.92 91.7901 97.72 93.1128 99.32C94.4354 100.92 95.0968 103.117 95.0968 105.912V110.424ZM84.1848 104.408C84.1848 105.389 84.4514 106.2 84.9848 106.84C85.5394 107.459 86.3074 107.768 87.2888 107.768C88.8034 107.768 90.1794 107.192 91.4168 106.04V105.912C91.4168 104.077 91.0754 102.712 90.3928 101.816C89.7314 100.92 88.7714 100.472 87.5128 100.472C86.4674 100.472 85.6461 100.813 85.0488 101.496C84.4728 102.179 84.1848 102.936 84.1848 103.768V104.408ZM119.754 114.072H117.482V119H113.77V114.072H104.426V110.968C105.386 109.475 106.335 107.96 107.274 106.424C108.234 104.867 109.13 103.32 109.962 101.784C110.794 100.227 111.476 98.712 112.01 97.24H116.202C115.412 99.416 114.346 101.656 113.002 103.96C111.658 106.243 110.271 108.472 108.842 110.648H113.77V107.352H117.482V110.648H119.754V114.072ZM122.613 107.768L123.253 97.24H134.389V100.856H126.645L126.357 105.656C127.103 105.464 127.903 105.368 128.757 105.368C130.869 105.368 132.522 105.923 133.717 107.032C134.911 108.12 135.509 109.731 135.509 111.864V112.728C135.509 113.923 135.263 115.021 134.773 116.024C134.282 117.027 133.493 117.827 132.405 118.424C131.338 119.021 129.919 119.32 128.149 119.32C127.167 119.32 126.143 119.203 125.077 118.968C124.031 118.733 122.879 118.339 121.621 117.784L122.805 114.488C123.935 114.936 124.885 115.267 125.653 115.48C126.442 115.672 127.231 115.768 128.021 115.768C129.215 115.768 130.111 115.523 130.709 115.032C131.327 114.541 131.637 113.773 131.637 112.728V111.864C131.637 110.925 131.359 110.179 130.805 109.624C130.271 109.069 129.407 108.792 128.213 108.792C127.679 108.792 127.125 108.867 126.549 109.016C125.973 109.144 125.354 109.336 124.693 109.592L122.613 107.768ZM153.799 112.472C153.799 113.773 153.511 114.947 152.935 115.992C152.359 117.016 151.537 117.827 150.471 118.424C149.425 119.021 148.156 119.32 146.663 119.32C144.295 119.32 142.449 118.52 141.127 116.92C139.804 115.32 139.143 113.123 139.143 110.328V105.816C139.143 102.829 139.847 100.6 141.255 99.128C142.663 97.656 144.647 96.92 147.207 96.92C148.103 96.92 149.031 97.0267 149.991 97.24C150.972 97.4533 152.049 97.8373 153.222 98.392L151.847 101.688C150.887 101.24 150.044 100.931 149.319 100.76C148.593 100.568 147.921 100.472 147.303 100.472C145.959 100.472 144.871 100.877 144.039 101.688C143.228 102.477 142.823 103.853 142.823 105.816V106.968C143.569 106.307 144.337 105.816 145.127 105.496C145.937 105.176 146.737 105.016 147.527 105.016C148.807 105.016 149.916 105.304 150.855 105.88C151.793 106.456 152.519 107.256 153.031 108.28C153.543 109.304 153.799 110.488 153.799 111.832V112.472ZM142.823 110.328C142.823 112.163 143.164 113.528 143.847 114.424C144.529 115.32 145.489 115.768 146.727 115.768C147.793 115.768 148.615 115.469 149.191 114.872C149.767 114.253 150.055 113.453 150.055 112.472V111.832C150.055 110.829 149.788 110.019 149.255 109.4C148.721 108.781 147.953 108.472 146.951 108.472C145.436 108.472 144.06 109.048 142.823 110.2V110.328ZM169.393 100.536C167.943 103.608 166.705 106.691 165.681 109.784C164.679 112.856 163.879 115.928 163.281 119H159.249C159.847 115.971 160.636 112.941 161.617 109.912C162.599 106.883 163.804 103.864 165.233 100.856H155.889V97.24H169.393V100.536ZM178.675 107.768L179.315 97.24H190.451V100.856H182.707L182.419 105.656C183.166 105.464 183.966 105.368 184.819 105.368C186.931 105.368 188.585 105.923 189.779 107.032C190.974 108.12 191.571 109.731 191.571 111.864V112.728C191.571 113.923 191.326 115.021 190.835 116.024C190.345 117.027 189.555 117.827 188.467 118.424C187.401 119.021 185.982 119.32 184.211 119.32C183.23 119.32 182.206 119.203 181.139 118.968C180.094 118.733 178.942 118.339 177.683 117.784L178.867 114.488C179.998 114.936 180.947 115.267 181.715 115.48C182.505 115.672 183.294 115.768 184.083 115.768C185.278 115.768 186.174 115.523 186.771 115.032C187.39 114.541 187.699 113.773 187.699 112.728V111.864C187.699 110.925 187.422 110.179 186.867 109.624C186.334 109.069 185.47 108.792 184.275 108.792C183.742 108.792 183.187 108.867 182.611 109.016C182.035 109.144 181.417 109.336 180.755 109.592L178.675 107.768ZM209.285 114.072H207.013V119H203.301V114.072H193.957V110.968C194.917 109.475 195.866 107.96 196.805 106.424C197.765 104.867 198.661 103.32 199.493 101.784C200.325 100.227 201.008 98.712 201.541 97.24H205.733C204.944 99.416 203.877 101.656 202.533 103.96C201.189 106.243 199.802 108.472 198.373 110.648H203.301V107.352H207.013V110.648H209.285V114.072ZM224.272 113.08C224.272 114.211 224.037 115.256 223.568 116.216C223.099 117.155 222.341 117.912 221.296 118.488C220.272 119.043 218.896 119.32 217.168 119.32C216.187 119.32 215.163 119.203 214.096 118.968C213.051 118.733 211.899 118.339 210.64 117.784L211.824 114.488C212.955 114.893 213.904 115.213 214.672 115.448C215.461 115.661 216.251 115.768 217.04 115.768C218.171 115.768 219.024 115.544 219.6 115.096C220.197 114.627 220.496 113.901 220.496 112.92V112.472C220.496 111.661 220.24 111.011 219.728 110.52C219.237 110.008 218.469 109.752 217.424 109.752H214.032V106.296H217.424C218.427 106.296 219.163 106.061 219.632 105.592C220.101 105.101 220.336 104.472 220.336 103.704V103.256C220.336 102.275 220.059 101.571 219.504 101.144C218.971 100.696 218.181 100.472 217.136 100.472C216.389 100.472 215.632 100.579 214.864 100.792C214.117 100.984 213.211 101.283 212.144 101.688L210.96 98.392C212.155 97.8373 213.264 97.4533 214.288 97.24C215.312 97.0267 216.304 96.92 217.264 96.92C218.907 96.92 220.229 97.1973 221.232 97.752C222.235 98.3067 222.96 99.0533 223.408 99.992C223.877 100.931 224.112 101.965 224.112 103.096V103.544C224.112 104.547 223.856 105.432 223.344 106.2C222.853 106.947 222.203 107.544 221.392 107.992C222.267 108.461 222.96 109.091 223.472 109.88C224.005 110.648 224.272 111.565 224.272 112.632V113.08ZM240.495 119H227.311V115.96C227.311 114.424 227.514 113.144 227.919 112.12C228.325 111.075 228.869 110.221 229.551 109.56C230.234 108.877 230.981 108.333 231.791 107.928L233.967 106.84C234.799 106.413 235.471 105.965 235.983 105.496C236.517 105.005 236.783 104.376 236.783 103.608V103.032C236.783 102.243 236.506 101.624 235.951 101.176C235.418 100.707 234.554 100.472 233.359 100.472C232.634 100.472 231.898 100.579 231.151 100.792C230.426 101.005 229.541 101.304 228.495 101.688L227.311 98.392C228.506 97.8587 229.594 97.4853 230.575 97.272C231.578 97.0373 232.549 96.92 233.487 96.92C235.215 96.92 236.591 97.1973 237.615 97.752C238.661 98.3067 239.407 99.0533 239.855 99.992C240.325 100.909 240.559 101.923 240.559 103.032V103.608C240.559 104.76 240.325 105.741 239.855 106.552C239.407 107.363 238.81 108.045 238.063 108.6C237.317 109.155 236.506 109.645 235.631 110.072L233.455 111.16C232.666 111.544 232.079 112.077 231.695 112.76C231.333 113.443 231.13 114.317 231.087 115.384H240.495V119ZM264.882 113.08C264.882 114.253 264.604 115.309 264.05 116.248C263.516 117.187 262.695 117.933 261.586 118.488C260.476 119.043 259.068 119.32 257.362 119.32C255.676 119.32 254.311 119.064 253.266 118.552C252.22 118.019 251.452 117.325 250.962 116.472C250.471 115.619 250.226 114.669 250.226 113.624C250.226 112.579 250.471 111.619 250.962 110.744C251.452 109.848 252.263 109.027 253.394 108.28C252.498 107.683 251.804 106.947 251.314 106.072C250.844 105.197 250.61 104.173 250.61 103C250.61 101.869 250.876 100.845 251.41 99.928C251.943 99.0107 252.722 98.2853 253.746 97.752C254.77 97.1973 255.996 96.92 257.426 96.92C258.962 96.92 260.252 97.176 261.298 97.688C262.343 98.2 263.122 98.8933 263.634 99.768C264.167 100.621 264.434 101.581 264.434 102.648C264.434 103.587 264.21 104.472 263.762 105.304C263.335 106.115 262.61 106.872 261.586 107.576C263.783 108.813 264.882 110.648 264.882 113.08ZM257.138 105.944L258.706 106.424C259.431 105.805 259.932 105.24 260.21 104.728C260.508 104.195 260.658 103.651 260.658 103.096C260.658 102.243 260.38 101.571 259.826 101.08C259.292 100.568 258.524 100.312 257.522 100.312C256.519 100.312 255.74 100.557 255.186 101.048C254.652 101.539 254.386 102.211 254.386 103.064C254.386 104.408 255.303 105.368 257.138 105.944ZM254.002 113.08C254.002 113.933 254.311 114.627 254.93 115.16C255.548 115.672 256.423 115.928 257.554 115.928C258.663 115.928 259.527 115.672 260.146 115.16C260.786 114.648 261.106 113.965 261.106 113.112C261.106 112.472 260.871 111.896 260.402 111.384C259.954 110.851 259.175 110.413 258.066 110.072L256.338 109.528C255.548 110.168 254.962 110.765 254.578 111.32C254.194 111.875 254.002 112.461 254.002 113.08ZM282.628 110.424C282.628 113.411 281.924 115.64 280.516 117.112C279.108 118.584 277.124 119.32 274.564 119.32C273.668 119.32 272.74 119.213 271.78 119C270.82 118.787 269.743 118.403 268.548 117.848L269.924 114.552C270.884 115 271.727 115.32 272.452 115.512C273.199 115.683 273.871 115.768 274.468 115.768C275.812 115.768 276.889 115.363 277.7 114.552C278.532 113.741 278.948 112.365 278.948 110.424V109.272C278.223 109.933 277.455 110.424 276.644 110.744C275.855 111.064 275.055 111.224 274.244 111.224C272.985 111.224 271.876 110.936 270.916 110.36C269.977 109.784 269.252 108.984 268.74 107.96C268.228 106.936 267.972 105.752 267.972 104.408V103.768C267.972 102.573 268.26 101.453 268.836 100.408C269.412 99.3627 270.233 98.52 271.3 97.88C272.367 97.24 273.636 96.92 275.108 96.92C277.476 96.92 279.321 97.72 280.644 99.32C281.967 100.92 282.628 103.117 282.628 105.912V110.424ZM271.716 104.408C271.716 105.389 271.983 106.2 272.516 106.84C273.071 107.459 273.839 107.768 274.82 107.768C276.335 107.768 277.711 107.192 278.948 106.04V105.912C278.948 104.077 278.607 102.712 277.924 101.816C277.263 100.92 276.303 100.472 275.044 100.472C273.999 100.472 273.177 100.813 272.58 101.496C272.004 102.179 271.716 102.936 271.716 103.768V104.408ZM302.159 105.816V110.392C302.159 113.165 301.508 115.352 300.207 116.952C298.905 118.531 296.996 119.32 294.479 119.32C291.961 119.32 290.052 118.531 288.751 116.952C287.449 115.352 286.799 113.165 286.799 110.392V105.816C286.799 103.043 287.449 100.867 288.751 99.288C290.052 97.7093 291.961 96.92 294.479 96.92C296.996 96.92 298.905 97.7093 300.207 99.288C301.508 100.867 302.159 103.043 302.159 105.816ZM298.287 105.816C298.287 102.253 297.017 100.472 294.479 100.472C293.177 100.472 292.217 100.92 291.599 101.816C290.98 102.712 290.671 104.045 290.671 105.816V110.392C290.671 112.163 290.98 113.507 291.599 114.424C292.217 115.32 293.177 115.768 294.479 115.768C297.017 115.768 298.287 113.976 298.287 110.392V105.816ZM318.522 113.08C318.522 114.211 318.287 115.256 317.818 116.216C317.349 117.155 316.591 117.912 315.546 118.488C314.522 119.043 313.146 119.32 311.418 119.32C310.437 119.32 309.413 119.203 308.346 118.968C307.301 118.733 306.149 118.339 304.89 117.784L306.074 114.488C307.205 114.893 308.154 115.213 308.922 115.448C309.711 115.661 310.501 115.768 311.29 115.768C312.421 115.768 313.274 115.544 313.85 115.096C314.447 114.627 314.746 113.901 314.746 112.92V112.472C314.746 111.661 314.49 111.011 313.978 110.52C313.487 110.008 312.719 109.752 311.674 109.752H308.282V106.296H311.674C312.677 106.296 313.413 106.061 313.882 105.592C314.351 105.101 314.586 104.472 314.586 103.704V103.256C314.586 102.275 314.309 101.571 313.754 101.144C313.221 100.696 312.431 100.472 311.386 100.472C310.639 100.472 309.882 100.579 309.114 100.792C308.367 100.984 307.461 101.283 306.394 101.688L305.21 98.392C306.405 97.8373 307.514 97.4533 308.538 97.24C309.562 97.0267 310.554 96.92 311.514 96.92C313.157 96.92 314.479 97.1973 315.482 97.752C316.485 98.3067 317.21 99.0533 317.658 99.992C318.127 100.931 318.362 101.965 318.362 103.096V103.544C318.362 104.547 318.106 105.432 317.594 106.2C317.103 106.947 316.453 107.544 315.642 107.992C316.517 108.461 317.21 109.091 317.722 109.88C318.255 110.648 318.522 111.565 318.522 112.632V113.08Z" fill="white"/>
<path d="M329.96 45.3154H324.543L327.931 25.7031H333.347L329.96 45.3154Z" fill="white"/>
<path d="M349.592 26.1826C348.524 25.7858 346.829 25.3477 344.734 25.3477C339.385 25.3477 335.619 28.0181 335.596 31.8361C335.551 34.653 338.292 36.2176 340.343 37.1568C342.438 38.1166 343.15 38.743 343.15 39.5985C343.129 40.9124 341.457 41.518 339.898 41.518C337.735 41.518 336.577 41.2058 334.816 40.4748L334.103 40.1614L333.345 44.564C334.615 45.1058 336.955 45.5867 339.385 45.6078C345.069 45.6078 348.768 42.9786 348.812 38.9099C348.834 36.6773 347.386 34.9666 344.266 33.5687C342.372 32.6714 341.211 32.0663 341.211 31.1481C341.234 30.3134 342.193 29.4585 344.331 29.4585C346.092 29.4166 347.386 29.8129 348.366 30.2094L348.856 30.4177L349.592 26.1826Z" fill="white"/>
<path d="M356.793 38.3675C357.24 37.2408 358.956 32.8801 358.956 32.8801C358.933 32.922 359.401 31.7326 359.669 31.0025L360.047 32.6924C360.047 32.6924 361.073 37.3869 361.295 38.3675C360.449 38.3675 357.863 38.3675 356.793 38.3675ZM363.479 25.7031H359.29C357.998 25.7031 357.016 26.0575 356.459 27.3304L348.414 45.3151H354.097C354.097 45.3151 355.032 42.8945 355.233 42.3732C355.857 42.3732 361.386 42.3732 362.188 42.3732C362.343 43.0617 362.834 45.3151 362.834 45.3151H367.849L363.479 25.7031Z" fill="white"/>
<path d="M320.019 25.7031L314.714 39.0768L314.135 36.3645C313.154 33.2348 310.078 29.8345 306.646 28.1437L311.505 45.2946H317.232L325.746 25.7031H320.019Z" fill="white"/>
<path d="M309.789 25.7031H301.075L300.985 26.0994C307.783 27.7271 312.285 31.6507 314.135 36.3666L312.24 27.3519C311.928 26.0992 310.97 25.7444 309.789 25.7031Z" fill="#FAA61A"/>
<path d="M34.18 210.16C33.1133 210.16 32.0933 210 31.12 209.68C30.1467 209.347 29.38 208.92 28.82 208.4L29.56 206.84C30.0933 207.307 30.7733 207.693 31.6 208C32.4267 208.307 33.2867 208.46 34.18 208.46C34.9933 208.46 35.6533 208.367 36.16 208.18C36.6667 207.993 37.04 207.74 37.28 207.42C37.52 207.087 37.64 206.713 37.64 206.3C37.64 205.82 37.48 205.433 37.16 205.14C36.8533 204.847 36.4467 204.613 35.94 204.44C35.4467 204.253 34.9 204.093 34.3 203.96C33.7 203.827 33.0933 203.673 32.48 203.5C31.88 203.313 31.3267 203.08 30.82 202.8C30.3267 202.52 29.9267 202.147 29.62 201.68C29.3133 201.2 29.16 200.587 29.16 199.84C29.16 199.12 29.3467 198.46 29.72 197.86C30.1067 197.247 30.6933 196.76 31.48 196.4C32.28 196.027 33.2933 195.84 34.52 195.84C35.3333 195.84 36.14 195.947 36.94 196.16C37.74 196.373 38.4333 196.68 39.02 197.08L38.36 198.68C37.76 198.28 37.1267 197.993 36.46 197.82C35.7933 197.633 35.1467 197.54 34.52 197.54C33.7333 197.54 33.0867 197.64 32.58 197.84C32.0733 198.04 31.7 198.307 31.46 198.64C31.2333 198.973 31.12 199.347 31.12 199.76C31.12 200.253 31.2733 200.647 31.58 200.94C31.9 201.233 32.3067 201.467 32.8 201.64C33.3067 201.813 33.86 201.973 34.46 202.12C35.06 202.253 35.66 202.407 36.26 202.58C36.8733 202.753 37.4267 202.98 37.92 203.26C38.4267 203.54 38.8333 203.913 39.14 204.38C39.4467 204.847 39.6 205.447 39.6 206.18C39.6 206.887 39.4067 207.547 39.02 208.16C38.6333 208.76 38.0333 209.247 37.22 209.62C36.42 209.98 35.4067 210.16 34.18 210.16ZM46.9619 210.12C45.8285 210.12 44.8285 209.887 43.9619 209.42C43.1085 208.953 42.4419 208.313 41.9619 207.5C41.4952 206.687 41.2619 205.753 41.2619 204.7C41.2619 203.647 41.4885 202.713 41.9419 201.9C42.4085 201.087 43.0419 200.453 43.8419 200C44.6552 199.533 45.5685 199.3 46.5819 199.3C47.6085 199.3 48.5152 199.527 49.3019 199.98C50.0885 200.433 50.7019 201.073 51.1419 201.9C51.5952 202.713 51.8219 203.667 51.8219 204.76C51.8219 204.84 51.8152 204.933 51.8019 205.04C51.8019 205.147 51.7952 205.247 51.7819 205.34H42.7619V203.96H50.7819L50.0019 204.44C50.0152 203.76 49.8752 203.153 49.5819 202.62C49.2885 202.087 48.8819 201.673 48.3619 201.38C47.8552 201.073 47.2619 200.92 46.5819 200.92C45.9152 200.92 45.3219 201.073 44.8019 201.38C44.2819 201.673 43.8752 202.093 43.5819 202.64C43.2885 203.173 43.1419 203.787 43.1419 204.48V204.8C43.1419 205.507 43.3019 206.14 43.6219 206.7C43.9552 207.247 44.4152 207.673 45.0019 207.98C45.5885 208.287 46.2619 208.44 47.0219 208.44C47.6485 208.44 48.2152 208.333 48.7219 208.12C49.2419 207.907 49.6952 207.587 50.0819 207.16L51.1419 208.4C50.6619 208.96 50.0619 209.387 49.3419 209.68C48.6352 209.973 47.8419 210.12 46.9619 210.12ZM54.488 210V199.4H56.408V210H54.488ZM55.448 197.36C55.0746 197.36 54.7613 197.24 54.508 197C54.268 196.76 54.148 196.467 54.148 196.12C54.148 195.76 54.268 195.46 54.508 195.22C54.7613 194.98 55.0746 194.86 55.448 194.86C55.8213 194.86 56.128 194.98 56.368 195.22C56.6213 195.447 56.748 195.733 56.748 196.08C56.748 196.44 56.628 196.747 56.388 197C56.148 197.24 55.8346 197.36 55.448 197.36ZM60.3539 210V198.46C60.3539 197.42 60.6539 196.593 61.2539 195.98C61.8672 195.353 62.7339 195.04 63.8539 195.04C64.2672 195.04 64.6606 195.093 65.0339 195.2C65.4206 195.293 65.7472 195.447 66.0139 195.66L65.4339 197.12C65.2339 196.96 65.0072 196.84 64.7539 196.76C64.5006 196.667 64.2339 196.62 63.9539 196.62C63.3939 196.62 62.9672 196.78 62.6739 197.1C62.3806 197.407 62.2339 197.867 62.2339 198.48V199.9L62.2739 200.78V210H60.3539ZM58.5539 200.98V199.4H65.3139V200.98H58.5539ZM72.7758 210V196H74.4158L80.6958 206.58H79.8158L86.0158 196H87.6558L87.6758 210H85.7558L85.7358 199.02H86.1958L80.6758 208.3H79.7558L74.1958 199.02H74.6958V210H72.7758ZM96.1373 210.12C95.0707 210.12 94.124 209.887 93.2973 209.42C92.4707 208.953 91.8173 208.313 91.3373 207.5C90.8573 206.673 90.6173 205.74 90.6173 204.7C90.6173 203.647 90.8573 202.713 91.3373 201.9C91.8173 201.087 92.4707 200.453 93.2973 200C94.124 199.533 95.0707 199.3 96.1373 199.3C97.1907 199.3 98.1307 199.533 98.9573 200C99.7973 200.453 100.451 201.087 100.917 201.9C101.397 202.7 101.637 203.633 101.637 204.7C101.637 205.753 101.397 206.687 100.917 207.5C100.451 208.313 99.7973 208.953 98.9573 209.42C98.1307 209.887 97.1907 210.12 96.1373 210.12ZM96.1373 208.44C96.8173 208.44 97.424 208.287 97.9573 207.98C98.504 207.673 98.9307 207.24 99.2373 206.68C99.544 206.107 99.6973 205.447 99.6973 204.7C99.6973 203.94 99.544 203.287 99.2373 202.74C98.9307 202.18 98.504 201.747 97.9573 201.44C97.424 201.133 96.8173 200.98 96.1373 200.98C95.4573 200.98 94.8507 201.133 94.3173 201.44C93.784 201.747 93.3573 202.18 93.0373 202.74C92.7173 203.287 92.5573 203.94 92.5573 204.7C92.5573 205.447 92.7173 206.107 93.0373 206.68C93.3573 207.24 93.784 207.673 94.3173 207.98C94.8507 208.287 95.4573 208.44 96.1373 208.44ZM109.953 199.3C110.819 199.3 111.579 199.467 112.233 199.8C112.899 200.133 113.419 200.64 113.793 201.32C114.166 202 114.353 202.86 114.353 203.9V210H112.433V204.12C112.433 203.093 112.179 202.32 111.673 201.8C111.179 201.28 110.479 201.02 109.573 201.02C108.893 201.02 108.299 201.153 107.793 201.42C107.286 201.687 106.893 202.08 106.613 202.6C106.346 203.12 106.213 203.767 106.213 204.54V210H104.293V195.16H106.213V202.26L105.833 201.5C106.179 200.807 106.713 200.267 107.433 199.88C108.153 199.493 108.993 199.3 109.953 199.3ZM124.486 210V207.76L124.386 207.34V203.52C124.386 202.707 124.146 202.08 123.666 201.64C123.199 201.187 122.493 200.96 121.546 200.96C120.919 200.96 120.306 201.067 119.706 201.28C119.106 201.48 118.599 201.753 118.186 202.1L117.386 200.66C117.933 200.22 118.586 199.887 119.346 199.66C120.119 199.42 120.926 199.3 121.766 199.3C123.219 199.3 124.339 199.653 125.126 200.36C125.913 201.067 126.306 202.147 126.306 203.6V210H124.486ZM121.006 210.12C120.219 210.12 119.526 209.987 118.926 209.72C118.339 209.453 117.886 209.087 117.566 208.62C117.246 208.14 117.086 207.6 117.086 207C117.086 206.427 117.219 205.907 117.486 205.44C117.766 204.973 118.213 204.6 118.826 204.32C119.453 204.04 120.293 203.9 121.346 203.9H124.706V205.28H121.426C120.466 205.28 119.819 205.44 119.486 205.76C119.153 206.08 118.986 206.467 118.986 206.92C118.986 207.44 119.193 207.86 119.606 208.18C120.019 208.487 120.593 208.64 121.326 208.64C122.046 208.64 122.673 208.48 123.206 208.16C123.753 207.84 124.146 207.373 124.386 206.76L124.766 208.08C124.513 208.707 124.066 209.207 123.426 209.58C122.786 209.94 121.979 210.12 121.006 210.12ZM143.119 199.3C143.972 199.3 144.726 199.467 145.379 199.8C146.032 200.133 146.539 200.64 146.899 201.32C147.272 202 147.459 202.86 147.459 203.9V210H145.539V204.12C145.539 203.093 145.299 202.32 144.819 201.8C144.339 201.28 143.666 201.02 142.799 201.02C142.159 201.02 141.599 201.153 141.119 201.42C140.639 201.687 140.266 202.08 139.999 202.6C139.746 203.12 139.619 203.767 139.619 204.54V210H137.699V204.12C137.699 203.093 137.459 202.32 136.979 201.8C136.512 201.28 135.839 201.02 134.959 201.02C134.332 201.02 133.779 201.153 133.299 201.42C132.819 201.687 132.446 202.08 132.179 202.6C131.912 203.12 131.779 203.767 131.779 204.54V210H129.859V199.4H131.699V202.22L131.399 201.5C131.732 200.807 132.246 200.267 132.939 199.88C133.632 199.493 134.439 199.3 135.359 199.3C136.372 199.3 137.246 199.553 137.979 200.06C138.712 200.553 139.192 201.307 139.419 202.32L138.639 202C138.959 201.187 139.519 200.533 140.319 200.04C141.119 199.547 142.052 199.3 143.119 199.3ZM155.712 210.12C154.579 210.12 153.579 209.887 152.712 209.42C151.859 208.953 151.192 208.313 150.712 207.5C150.245 206.687 150.012 205.753 150.012 204.7C150.012 203.647 150.239 202.713 150.692 201.9C151.159 201.087 151.792 200.453 152.592 200C153.405 199.533 154.319 199.3 155.332 199.3C156.359 199.3 157.265 199.527 158.052 199.98C158.839 200.433 159.452 201.073 159.892 201.9C160.345 202.713 160.572 203.667 160.572 204.76C160.572 204.84 160.565 204.933 160.552 205.04C160.552 205.147 160.545 205.247 160.532 205.34H151.512V203.96H159.532L158.752 204.44C158.765 203.76 158.625 203.153 158.332 202.62C158.039 202.087 157.632 201.673 157.112 201.38C156.605 201.073 156.012 200.92 155.332 200.92C154.665 200.92 154.072 201.073 153.552 201.38C153.032 201.673 152.625 202.093 152.332 202.64C152.039 203.173 151.892 203.787 151.892 204.48V204.8C151.892 205.507 152.052 206.14 152.372 206.7C152.705 207.247 153.165 207.673 153.752 207.98C154.339 208.287 155.012 208.44 155.772 208.44C156.399 208.44 156.965 208.333 157.472 208.12C157.992 207.907 158.445 207.587 158.832 207.16L159.892 208.4C159.412 208.96 158.812 209.387 158.092 209.68C157.385 209.973 156.592 210.12 155.712 210.12ZM167.618 210.12C166.591 210.12 165.671 209.893 164.858 209.44C164.058 208.987 163.425 208.353 162.958 207.54C162.491 206.727 162.258 205.78 162.258 204.7C162.258 203.62 162.491 202.68 162.958 201.88C163.425 201.067 164.058 200.433 164.858 199.98C165.671 199.527 166.591 199.3 167.618 199.3C168.511 199.3 169.318 199.5 170.038 199.9C170.758 200.3 171.331 200.9 171.758 201.7C172.198 202.5 172.418 203.5 172.418 204.7C172.418 205.9 172.205 206.9 171.778 207.7C171.365 208.5 170.798 209.107 170.078 209.52C169.358 209.92 168.538 210.12 167.618 210.12ZM167.778 208.44C168.445 208.44 169.045 208.287 169.578 207.98C170.125 207.673 170.551 207.24 170.858 206.68C171.178 206.107 171.338 205.447 171.338 204.7C171.338 203.94 171.178 203.287 170.858 202.74C170.551 202.18 170.125 201.747 169.578 201.44C169.045 201.133 168.445 200.98 167.778 200.98C167.098 200.98 166.491 201.133 165.958 201.44C165.425 201.747 164.998 202.18 164.678 202.74C164.358 203.287 164.198 203.94 164.198 204.7C164.198 205.447 164.358 206.107 164.678 206.68C164.998 207.24 165.425 207.673 165.958 207.98C166.491 208.287 167.098 208.44 167.778 208.44ZM171.398 210V207.14L171.518 204.68L171.318 202.22V195.16H173.238V210H171.398Z" fill="white"/>
</g>
<defs>
<linearGradient id="paint0_linear_833_3312" x1="198" y1="0" x2="273.014" y2="243.708" gradientUnits="userSpaceOnUse">
<stop stop-color="#0EFFB7"/>
<stop offset="1" stop-color="#5200FF"/>
</linearGradient>
<clipPath id="clip0_833_3312">
<rect width="396" height="234" rx="30" fill="white"/>
</clipPath>
<clipPath id="clip1_833_3312">
<rect width="110" height="26" fill="white" transform="translate(26 23)"/>
</clipPath>
</defs>
</svg>
