<svg width="22" height="12" viewBox="0 0 22 12" fill="none" xmlns="http://www.w3.org/2000/svg">
<path fill-rule="evenodd" clip-rule="evenodd" d="M21.2955 0.310833C21.6762 0.474 21.8526 0.914909 21.6894 1.29563L21 1.00019C21.6894 1.29563 21.6895 1.29546 21.6894 1.29563L21.6887 1.29731L21.6876 1.2998L21.6844 1.30716L21.6738 1.33123C21.6648 1.35137 21.652 1.37958 21.6353 1.41527C21.6021 1.48662 21.5534 1.58794 21.4889 1.71435C21.3601 1.967 21.1676 2.32087 20.9086 2.73666C20.483 3.4197 19.8725 4.27785 19.062 5.13037L20.0304 6.0987C20.3233 6.39159 20.3233 6.86647 20.0304 7.15936C19.7375 7.45225 19.2626 7.45225 18.9697 7.15936L17.9691 6.15878C17.3094 6.71147 16.5529 7.23022 15.6951 7.65642L16.6287 9.09115C16.8546 9.43834 16.7563 9.90292 16.4091 10.1288C16.0619 10.3547 15.5973 10.2564 15.3714 9.90923L14.2822 8.23534C13.5029 8.48985 12.6591 8.66281 11.75 8.72481V10.5002C11.75 10.9144 11.4143 11.2502 11 11.2502C10.5858 11.2502 10.25 10.9144 10.25 10.5002V8.72481C9.36902 8.66472 8.54922 8.5004 7.78995 8.25859L6.71587 9.9093C6.48997 10.2565 6.02538 10.3548 5.67819 10.1289C5.33101 9.90299 5.23269 9.43841 5.4586 9.09122L6.37101 7.68896C5.50663 7.26685 4.74394 6.75036 4.07854 6.19845L3.11756 7.15943C2.82467 7.45232 2.3498 7.45232 2.0569 7.15943C1.76401 6.86654 1.76401 6.39166 2.0569 6.09877L2.98067 5.17501C2.15611 4.31532 1.53537 3.44675 1.10289 2.75486C0.839966 2.33423 0.644717 1.97584 0.514004 1.71988C0.448603 1.59182 0.399226 1.48914 0.365492 1.41683C0.348622 1.38067 0.335652 1.35207 0.326537 1.33167L0.315743 1.30729L0.3125 1.29984L0.311415 1.29733L0.311007 1.29638C0.31093 1.2962 0.310687 1.29563 1.00005 1.00019L0.311007 1.29638C0.14784 0.915654 0.323884 0.474 0.704606 0.310834C1.08502 0.147801 1.52551 0.32374 1.689 0.703813C1.68894 0.703682 1.68906 0.703944 1.689 0.703813L1.68996 0.706004L1.69603 0.719718C1.70193 0.732913 1.71152 0.7541 1.72485 0.782672C1.75151 0.839831 1.79308 0.926442 1.84989 1.03767C1.96357 1.26029 2.13774 1.58046 2.37485 1.95979C2.85045 2.72067 3.57169 3.70728 4.55573 4.62178C5.42163 5.4265 6.48271 6.16775 7.75177 6.656C8.70626 7.02322 9.78549 7.25019 11 7.25019C12.2418 7.25019 13.3422 7.01295 14.3125 6.63101C15.5739 6.13452 16.6278 5.38844 17.4868 4.58218C18.4563 3.67216 19.1669 2.69535 19.6355 1.9434C19.8691 1.5685 20.0407 1.25246 20.1527 1.03286C20.2086 0.923146 20.2496 0.837761 20.2758 0.781438C20.2889 0.753284 20.2984 0.732418 20.3042 0.719433L20.3102 0.70595L20.3107 0.704753C20.3106 0.704851 20.3107 0.704655 20.3107 0.704753M21.2955 0.310833C20.9149 0.147709 20.474 0.324234 20.3107 0.704753L21.2955 0.310833ZM1.689 0.703813C1.68894 0.703682 1.68906 0.703944 1.689 0.703813V0.703813Z" fill="#05162C"/>
</svg>
