<svg width="24" height="16" viewBox="0 0 24 16" fill="none" xmlns="http://www.w3.org/2000/svg">
<path d="M0.96 0.463867C0.429912 0.463867 0 0.893659 0 1.42387V14.5759C0 15.1061 0.430128 15.5359 0.96 15.5359H23.04C23.5701 15.5359 24 15.1061 24 14.5759V1.42387C24 0.893683 23.5699 0.463867 23.04 0.463867H0.96ZM14.334 4.95561C14.9181 4.95561 15.3862 5.08464 15.6847 5.20461L15.4807 6.48787L15.3457 6.41961C15.0677 6.29964 14.7105 6.18417 14.2177 6.19236C13.6279 6.19236 13.3553 6.45547 13.3553 6.70164C13.3518 6.979 13.6739 7.16193 14.2005 7.43587C15.0697 7.85851 15.4714 8.37096 15.4658 9.04461C15.4541 10.2738 14.426 11.0681 12.8423 11.0681C12.1666 11.0607 11.5156 10.9176 11.1637 10.7524L11.3753 9.42636L11.5695 9.52087C12.0643 9.74195 12.3847 9.83138 12.9877 9.83138C13.4208 9.83138 13.8856 9.65006 13.8893 9.25312C13.8921 8.99392 13.695 8.80912 13.1085 8.51887C12.537 8.23557 11.7794 7.76102 11.7878 6.91012C11.7967 5.75906 12.8453 4.95561 14.334 4.95561ZM2.12249 5.14387H4.55474C4.88227 5.15625 5.1467 5.26171 5.238 5.61712L5.76226 8.32312C5.76233 8.32336 5.76216 8.32435 5.76226 8.32461L5.91974 9.13538L7.39649 5.14387H8.994L6.61949 10.9864L5.02349 10.9879L3.753 6.27336C4.50895 6.67384 5.15254 7.13721 5.52526 7.77487C5.42916 7.5731 5.30254 7.34534 5.14051 7.12087C4.95182 6.85946 4.54433 6.52195 4.374 6.37836C3.78048 5.87803 2.97444 5.47394 2.10374 5.26012L2.12249 5.14387ZM9.62926 5.15061H11.1915L10.2142 10.9841H8.652L9.62926 5.15061ZM18.453 5.15061H19.6365L20.8755 10.9841H19.455C19.455 10.9841 19.3141 10.3139 19.2683 10.1096C19.045 10.1096 17.4834 10.1074 17.3077 10.1074C17.2483 10.2653 16.9853 10.9841 16.9853 10.9841H15.378L17.6513 5.63512C17.8122 5.25501 18.0865 5.15061 18.453 5.15061ZM18.5693 6.71961C18.4924 6.9366 18.3585 7.287 18.3675 7.27161C18.3675 7.27161 17.8866 8.55417 17.7608 8.88712L19.0245 8.88636C18.9071 8.3301 18.7896 7.77387 18.672 7.21766L18.5693 6.71966V6.71961Z" fill="#145DB8"/>
</svg>
