<svg width="15" height="18" viewBox="0 0 15 18" fill="none" xmlns="http://www.w3.org/2000/svg">
<path d="M7.82652 14.6325C8.59264 13.0097 8.90255 11.209 8.72302 9.42351C8.56102 7.86251 8.64652 7.98901 8.81702 7.30351C10.056 8.29201 11.606 8.12101 12.872 7.81101C13.0513 8.09579 13.1723 8.41337 13.2278 8.74529C13.2834 9.07721 13.2724 9.41686 13.1955 9.74451C12.8127 12.129 11.7026 14.337 10.017 16.0665C8.61752 17.501 7.21652 17.6425 5.63052 16.4315C3.39752 14.726 1.51502 12.7265 0.772521 9.90051C0.369021 8.36451 1.61752 5.95201 3.10252 5.38851C3.45252 5.24351 3.85502 5.33101 4.11352 5.60751M4.11352 5.60751C4.90577 6.35698 5.50836 7.28417 5.87152 8.31251C6.14552 8.99001 6.37802 9.68401 6.64752 10.421C5.36952 6.81951 4.81452 6.18851 4.11352 5.60751ZM4.11352 5.60751C4.55602 4.54001 5.78602 3.72551 6.16952 3.35351C6.31952 3.19201 6.39802 2.97651 6.38502 2.75651C6.34835 2.66527 6.3316 2.56724 6.3359 2.469C6.3402 2.37076 6.36545 2.27458 6.40996 2.18689C6.45447 2.0992 6.5172 2.02204 6.59396 1.96058C6.67072 1.89911 6.75973 1.85477 6.85502 1.83051C7.44552 1.58451 8.01002 1.25051 8.67502 1.79751C8.84622 1.88053 9.03255 1.92778 9.22262 1.93637C9.41269 1.94497 9.60253 1.91473 9.78052 1.84751C10.7355 1.54351 11.6605 1.14751 12.478 0.833008L13.572 3.03801C12.9035 3.50001 12.082 4.03151 11.3025 4.61901C10.6926 5.06671 10.1193 5.56227 9.58802 6.10101" stroke="#05162C" stroke-linecap="round" stroke-linejoin="round"/>
</svg>
