<svg width="16" height="17" viewBox="0 0 16 17" fill="none" xmlns="http://www.w3.org/2000/svg">
<path d="M5.9745 13.1073L6.43881 12.5183L5.9745 13.1073ZM8.00001 4.16709L7.45964 4.68719C7.60103 4.83408 7.79613 4.91709 8.00001 4.91709C8.20389 4.91709 8.39899 4.83408 8.54038 4.68719L8.00001 4.16709ZM10.0255 13.1073L10.4898 13.6962L10.0255 13.1073ZM5.9745 13.1073L6.43881 12.5183C5.41354 11.71 4.33636 10.9524 3.47913 9.98717C2.64761 9.05085 2.08334 7.97831 2.08334 6.5914H1.33334H0.583344C0.583344 8.44644 1.35889 9.85867 2.35756 10.9832C3.33052 12.0788 4.57392 12.9582 5.51018 13.6962L5.9745 13.1073ZM1.33334 6.5914H2.08334C2.08334 5.25102 2.84036 4.13995 3.85351 3.67683C4.81938 3.23533 6.15164 3.32823 7.45964 4.68719L8.00001 4.16709L8.54038 3.64699C6.84848 1.88917 4.84741 1.57324 3.22992 2.3126C1.65971 3.03035 0.583344 4.68982 0.583344 6.5914H1.33334ZM5.9745 13.1073L5.51018 13.6962C5.84938 13.9636 6.22941 14.2618 6.61843 14.4891C7.0072 14.7163 7.47628 14.9167 8.00001 14.9167V14.1667V13.4167C7.85708 13.4167 7.65948 13.3601 7.37522 13.194C7.09119 13.0281 6.7918 12.7965 6.43881 12.5183L5.9745 13.1073ZM10.0255 13.1073L10.4898 13.6962C11.4261 12.9582 12.6695 12.0788 13.6425 10.9832C14.6411 9.85867 15.4167 8.44644 15.4167 6.5914H14.6667H13.9167C13.9167 7.97831 13.3524 9.05085 12.5209 9.98717C11.6637 10.9524 10.5865 11.71 9.56121 12.5183L10.0255 13.1073ZM14.6667 6.5914H15.4167C15.4167 4.68982 14.3403 3.03035 12.7701 2.3126C11.1526 1.57324 9.15154 1.88917 7.45964 3.64699L8.00001 4.16709L8.54038 4.68719C9.84837 3.32823 11.1806 3.23533 12.1465 3.67683C13.1597 4.13995 13.9167 5.25102 13.9167 6.5914H14.6667ZM10.0255 13.1073L9.56121 12.5183C9.20822 12.7965 8.90883 13.0281 8.6248 13.194C8.34053 13.3601 8.14294 13.4167 8.00001 13.4167V14.1667V14.9167C8.52374 14.9167 8.99282 14.7163 9.38159 14.4891C9.77061 14.2618 10.1506 13.9636 10.4898 13.6962L10.0255 13.1073Z" fill="#1C274C"/>
</svg>
