<svg width="16" height="17" viewBox="0 0 16 17" fill="none" xmlns="http://www.w3.org/2000/svg">
<path fill-rule="evenodd" clip-rule="evenodd" d="M8.00004 1.33337C5.14657 1.33337 2.83337 3.64657 2.83337 6.50004V6.96944C2.83337 7.43406 2.69584 7.88828 2.43812 8.27486L1.67239 9.42346C0.783656 10.7566 1.46213 12.5686 3.00786 12.9901C3.5116 13.1275 4.01959 13.2437 4.53053 13.3388L4.5318 13.3422C5.04446 14.7101 6.41467 15.6667 7.99999 15.6667C9.58532 15.6667 10.9555 14.7101 11.4682 13.3422L11.4695 13.3388C11.9804 13.2437 12.4884 13.1275 12.9922 12.9901C14.5379 12.5686 15.2164 10.7566 14.3277 9.42346L13.562 8.27486C13.3042 7.88828 13.1667 7.43406 13.1667 6.96944V6.50004C13.1667 3.64657 10.8535 1.33337 8.00004 1.33337ZM10.251 13.5247C8.75567 13.7033 7.24431 13.7033 5.749 13.5247C6.22297 14.2057 7.04735 14.6667 7.99999 14.6667C8.95263 14.6667 9.77701 14.2057 10.251 13.5247ZM3.83337 6.50004C3.83337 4.19885 5.69885 2.33337 8.00004 2.33337C10.3012 2.33337 12.1667 4.19885 12.1667 6.50004V6.96944C12.1667 7.63148 12.3627 8.27871 12.7299 8.82956L13.4956 9.97816C14.0058 10.7433 13.6163 11.7834 12.7291 12.0254C9.63293 12.8698 6.36714 12.8698 3.27097 12.0254C2.38375 11.7834 1.99432 10.7433 2.50444 9.97816L3.27017 8.82956C3.63741 8.27871 3.83337 7.63148 3.83337 6.96944V6.50004Z" fill="black"/>
</svg>
